<svg xmlns:mydata="http://www.w3.org/2000/svg" mydata:contrastcolor="ffffff" mydata:template="Default" mydata:presentation="2.5" mydata:layouttype="undefined" mydata:specialfontid="undefined" mydata:id1="452" mydata:id2="168" mydata:companyname="Prem" mydata:companytagline="" version="1.1" xmlns="http://www.w3.org/2000/svg" xmlns:xlink="http://www.w3.org/1999/xlink" viewBox="0 0 550 470"><g fill="#2d2926" fill-rule="nonzero" stroke="none" stroke-width="1" stroke-linecap="butt" stroke-linejoin="miter" stroke-miterlimit="10" stroke-dasharray="" stroke-dashoffset="0" font-family="none" font-weight="none" font-size="none" text-anchor="none" style="mix-blend-mode: normal"><g data-paper-data="{&quot;isGlobalGroup&quot;:true,&quot;bounds&quot;:{&quot;x&quot;:187.23664624220868,&quot;y&quot;:115,&quot;width&quot;:175.5267075155827,&quot;height&quot;:240}}"><g data-paper-data="{&quot;isPrimaryText&quot;:true}"><path d="M223.71289,287.36041c0.69925,-3.89581 0.19979,-7.09237 -1.69817,-9.78947c-2.6971,-3.9957 -6.6928,-6.29323 -12.58646,-7.19227c-5.3942,-0.89903 -9.19012,-0.79914 -13.38561,-0.39957c-2.39742,0.29968 -3.79592,0.59936 -6.29323,0.89903c-1.2986,0.09989 -2.29753,0.39957 -2.39742,1.79807c-0.09989,1.19871 -0.19979,2.49731 0,3.9957c0.09989,0.79914 1.09882,1.3985 1.79807,1.19871c0.29968,-0.09989 2.19764,-0.49946 2.79699,-0.49946c1.59828,-0.09989 1.69817,1.09882 1.79807,2.6971c0.49946,5.19441 0.49946,9.19012 0.39957,13.28571c-0.09989,4.19549 0.09989,8.49087 0.29968,12.58646c0.09989,2.19764 0.59936,7.59184 0.69925,9.78947c0,1.19871 0.19979,11.08808 0.19979,12.28679c0,1.3985 -0.19979,3.59613 -1.69817,3.79592c-1.09882,0.09989 -2.19764,0 -3.19656,0.09989c-0.99893,0.09989 -1.2986,0.89903 -1.2986,1.59828c-0.09989,3.49624 0.39957,3.9957 0.89903,4.49517c0.59936,0.49946 2.29753,0.49946 4.19549,0.29968c0.49946,-0.09989 6.59291,-0.59936 9.48979,-0.19979c0.79914,0.09989 2.6971,0.09989 2.99678,0c0.99893,0 1.49839,-0.59936 1.49839,-1.59828c0,-1.2986 0.09989,-1.99785 0.09989,-2.49731c0,-1.99785 -0.49946,-2.29753 -1.99785,-2.19764c-1.19871,0.09989 -3.09667,0 -3.09667,0c-0.59936,0 -1.49839,-0.19979 -1.49839,-1.3985c0,-0.39957 0,-1.89796 -0.09989,-2.39742c0,-4.59506 -0.29968,-10.08915 -0.29968,-11.68743c0,-3.79592 -0.59936,-15.88292 -0.59936,-16.1826c0,-1.19871 0.59936,-1.79807 1.79807,-1.89796h0.69925c2.29753,-0.19979 4.69495,-0.39957 7.09237,-0.79914c1.89796,-0.39957 3.89581,-0.79914 5.89366,-1.59828c4.29538,-1.79807 6.7927,-4.49517 7.49194,-8.49087zM211.92557,291.05643c-2.19764,0.79914 -6.29323,1.49839 -9.29001,1.3985c-0.39957,0 -0.79914,0 -1.19871,-0.39957c-0.29968,-0.19979 -0.39957,-0.69925 -0.39957,-1.19871c0,-1.59828 -0.19979,-3.19656 -0.19979,-4.79484c-0.19979,-3.49624 -0.19979,-7.49194 -0.19979,-8.29108c0,-1.2986 0.69925,-1.99785 1.99785,-2.09774c3.59613,-0.19979 6.89259,0.19979 9.88936,1.19871c2.49731,0.69925 3.89581,2.79699 4.19549,6.09345c0.29968,4.19549 -0.79914,6.59291 -4.79484,8.0913z" data-paper-data="{&quot;glyphName&quot;:&quot;p&quot;,&quot;glyphIndex&quot;:0,&quot;firstGlyphOfWord&quot;:true,&quot;word&quot;:1}"></path><path d="M244.29076,316.72883c1.09882,0 1.89796,0.69925 2.29753,1.89796c0.39957,1.09882 0.89903,2.29753 1.49839,3.49624c1.59828,3.59613 3.09667,7.29216 4.49517,10.88829c0,0 1.49839,3.59613 3.19656,6.39312c1.59828,2.6971 2.99678,5.09452 4.99463,7.49194c2.09774,2.6971 5.09452,5.09452 7.69173,6.29323c3.39635,1.3985 6.99248,1.89796 10.18904,1.79807c1.09882,-0.09989 2.59721,-0.29968 2.89688,-1.3985c0.19979,-0.99893 0.19979,-2.6971 -0.29968,-3.89581v0c-0.49946,-1.2986 -1.3985,-1.3985 -2.6971,-1.3985c-4.79484,0.09989 -7.79162,-1.19871 -10.88829,-4.29538c-2.59721,-2.6971 -4.49517,-5.79377 -6.19334,-8.79055c-0.89903,-1.69817 -3.49624,-7.49194 -4.69495,-9.88936c-0.99893,-2.09774 -1.99785,-4.29538 -2.79699,-6.49302l-0.29968,-0.89903c-0.39957,-0.89903 -0.69925,-1.89796 -0.19979,-2.79699c0.49946,-0.89903 5.3942,-2.49731 8.49087,-4.49517c2.89688,-1.89796 5.69388,-4.59506 7.39205,-6.39312c0.39957,-0.49946 2.39742,-2.89688 2.79699,-3.89581c1.49839,-2.99678 2.29753,-6.29323 2.19764,-10.08915c0,-4.69495 -1.59828,-8.89044 -4.89474,-12.38668c-3.79592,-4.19549 -7.79162,-6.59291 -13.68528,-7.59184c-2.09774,-0.39957 -3.9957,-0.89903 -10.7884,-0.79914c-2.39742,0 -3.79592,0 -6.29323,0.09989c-3.9957,0 -5.89366,0.19979 -6.99248,0.49946c-1.09882,0.39957 -1.79807,1.19871 -1.89796,2.29753c0,0.69925 -0.09989,4.89474 -0.19979,5.49409c-0.19979,4.89474 -0.09989,11.48765 -0.09989,12.18689c-0.19979,2.79699 -0.39957,9.68958 -0.39957,12.58646c0,2.79699 0.09989,7.89151 0.19979,9.58969c0,1.49839 -0.19979,9.29001 -0.09989,11.58754c0.19979,3.19656 0.09989,5.09452 0.29968,9.09022l0.09989,3.79592c0.09989,1.59828 0.89903,1.59828 1.89796,1.69817c1.3985,0.09989 4.29538,0.09989 4.39527,-1.79807c0,0 0,-2.19764 0,-2.59721c0,0 -0.09989,-2.49731 0,-6.49302c0.19979,-3.39635 0,-5.69388 0.39957,-7.99141c0.29968,-1.89796 1.79807,-1.69817 2.79699,-1.79807c1.79807,-0.29968 4.89474,-0.99893 5.19441,-0.99893zM237.89764,311.03495c-1.3985,0 -1.99785,-0.69925 -1.99785,-2.09774l-0.09989,-5.19441c0,-0.99893 -0.09989,-1.99785 -0.09989,-2.99678c-0.09989,-3.09667 -0.19979,-6.39312 -0.09989,-9.58969c0,-2.89688 0.09989,-5.89366 0.19979,-8.69065c0.09989,-0.99893 0.29968,-3.79592 0.49946,-4.49517c0.39957,-1.49839 1.09882,-2.09774 2.39742,-2.29753c5.29431,-0.79914 11.28786,-1.09882 16.88185,0.39957c3.79592,0.99893 6.29323,2.99678 8.59076,5.69388c1.79807,1.89796 2.59721,3.69603 3.29645,6.49302c0.79914,3.29645 -0.09989,7.09237 -2.19764,10.28894c-3.29645,5.09452 -8.19119,8.39098 -15.58324,10.68851c-2.6971,0.79914 -5.29431,1.3985 -7.69173,1.79807c-0.59936,0.09989 -1.09882,0.19979 -1.69817,0.19979c-0.59936,0 -1.19871,-0.09989 -1.69817,-0.09989z" data-paper-data="{&quot;glyphName&quot;:&quot;r&quot;,&quot;glyphIndex&quot;:1,&quot;word&quot;:1}"></path><path d="M283.14897,272.77609c-1.2986,1.69817 -2.19764,3.79592 -2.79699,6.49302c-0.89903,4.49517 -1.2986,9.3899 -1.09882,15.18367c0.19979,5.89366 0.39957,12.58646 1.09882,19.17937c0,0.69925 0.09989,1.49839 0.19979,2.19764c0.39957,4.69495 0.89903,9.58969 2.29753,14.28464c0.49946,1.3985 1.09882,3.09667 2.29753,4.59506c3.19656,3.89581 7.29216,5.09452 12.087,3.49624c2.49731,-0.79914 4.39527,-3.09667 5.3942,-4.89474c1.79807,-2.99678 2.09774,-5.79377 2.29753,-10.58861c0.09989,-2.09774 0.19979,-6.09345 0.09989,-8.0913c-0.19979,-1.89796 -0.29968,-2.99678 -0.29968,-4.89474c0,-0.89903 -0.29968,-3.79592 -0.29968,-3.79592c-0.09989,-1.3985 -0.39957,-2.19764 -1.79807,-2.39742c-0.69925,0 -1.3985,-0.09989 -2.39742,0c-1.69817,0 -1.89796,0.89903 -1.89796,2.49731c0,1.69817 0,2.89688 0,4.59506v2.09774c0,0.79914 0,1.49839 0,2.19764c0.09989,1.69817 0.09989,3.39635 0,5.09452c-0.19979,2.29753 0.09989,7.29216 -1.2986,9.78947c-0.49946,0.89903 -1.69817,1.69817 -2.49731,1.89796c-0.89903,0.19979 -2.09774,0.49946 -3.09667,-0.09989c-2.6971,-1.59828 -3.39635,-7.19227 -3.79592,-9.29001c-0.69925,-3.89581 -1.09882,-7.99141 -1.2986,-11.38775c0,-1.59828 -0.29968,-9.58969 -0.29968,-11.68743c0.09989,-2.29753 0.09989,-4.99463 0.09989,-4.99463c0.19979,-1.69817 1.19871,-1.69817 2.79699,-1.89796c0.29968,0 4.39527,-0.09989 4.99463,-0.09989c3.09667,0 4.19549,-0.39957 7.99141,-0.49946c1.3985,-0.09989 1.89796,-0.59936 2.09774,-1.89796c0.09989,-0.49946 0.09989,-0.99893 0.19979,-1.59828c0,-0.29968 0,-0.49946 0,-0.79914c0.39957,-5.19441 -0.59936,-9.68958 -2.89688,-13.4855c-2.29753,-3.59613 -5.19441,-5.3942 -8.99033,-5.3942c-1.09882,0 -2.29753,0.19979 -3.69603,0.49946c-2.09774,0.39957 -3.9957,1.69817 -5.49409,3.69603zM289.04263,276.47212c1.19871,-1.09882 2.39742,-1.59828 3.49624,-1.59828v0c2.29753,0.19979 3.69603,1.19871 4.59506,3.09667c0.89903,1.89796 1.59828,4.0956 0.99893,6.59291c-0.19979,1.09882 -0.59936,1.79807 -1.79807,1.89796c-0.99893,0 -2.09774,0.09989 -3.09667,0.09989c-1.3985,0.09989 -2.79699,0.19979 -4.19549,0.19979c-0.29968,0 -0.69925,0 -0.99893,0c-0.79914,0 -1.2986,-0.19979 -1.69817,-0.59936c-0.29968,-0.39957 -0.39957,-0.89903 -0.39957,-1.59828c0.09989,-2.6971 0.59936,-5.79377 3.09667,-8.0913z" data-paper-data="{&quot;glyphName&quot;:&quot;e&quot;,&quot;glyphIndex&quot;:2,&quot;word&quot;:1}"></path><path d="M362.56357,322.4227c0.19979,-9.09022 0.29968,-31.26638 0,-34.9624c-0.19979,-4.0956 -0.69925,-7.59184 -2.09774,-10.7884c-1.19871,-2.6971 -3.09667,-4.69495 -5.49409,-5.69388c-3.29645,-1.3985 -9.58969,-1.79807 -13.58539,2.59721c-2.6971,2.79699 -4.59506,5.89366 -5.59398,8.99033c-0.09989,0.29968 -0.19979,0.59936 -0.29968,0.89903c-1.89796,-2.89688 -4.49517,-4.29538 -8.89044,-4.99463c-2.49731,-0.29968 -5.19441,0.39957 -6.99248,1.89796l-0.79914,0.59936c-0.49946,0.49946 -0.49946,-0.89903 -0.39957,-1.79807v-2.39742c0,-0.49946 0,-0.89903 0,-1.3985c0.09989,-1.3985 0.09989,-2.99678 0,-4.49517c-0.09989,-0.99893 -0.69925,-1.79807 -1.79807,-1.79807c-1.49839,0 -3.09667,-0.09989 -4.19549,0.29968c-0.89903,0.39957 -1.2986,0.99893 -1.2986,1.79807c0,0.89903 0,1.79807 0,2.6971c0,1.3985 0,2.79699 0,4.0956c-0.09989,2.79699 0,4.69495 0.09989,6.99248c0,2.09774 0.09989,4.19549 0.09989,6.39312c-0.09989,2.49731 0,5.19441 0,7.79162c0.09989,1.2986 0.09989,2.59721 0.09989,3.89581c0.09989,0.79914 0.09989,14.28464 0.39957,17.78088c0.29968,5.19441 0,8.79055 0.39957,14.88399c0.09989,0.89903 0.19979,2.19764 1.19871,2.49731c1.2986,0.49946 2.6971,0.49946 4.19549,0c0.79914,-0.29968 0.99893,-1.69817 0.99893,-2.49731c0,-2.39742 0,-6.29323 0,-7.49194c-0.19979,-4.0956 -0.09989,-7.79162 -0.19979,-10.7884c-0.09989,-3.79592 -0.19979,-3.89581 -0.29968,-7.69173c0,-1.3985 0,-6.59291 0,-8.0913c-0.09989,-1.19871 -0.09989,-2.49731 -0.09989,-3.69603c-0.09989,-1.79807 -0.19979,-3.69603 -0.19979,-5.59398c0.09989,-3.49624 2.29753,-7.19227 6.99248,-7.39205c2.89688,-0.09989 4.89474,1.09882 5.89366,3.49624c0.59936,1.49839 1.3985,3.09667 1.69817,5.19441c0.89903,5.49409 0.59936,9.48979 0.59936,13.88507c0,4.39527 0.19979,6.19334 0.19979,9.78947c0,2.89688 -0.09989,4.89474 0,8.89044c0,0.09989 0,0.09989 0,0.19979c0,0.59936 -0.09989,1.09882 -0.09989,1.69817c-0.09989,1.59828 -0.19979,5.79377 -0.29968,8.29108c0,1.3985 0.89903,1.69817 1.79807,2.09774v0c1.89796,0.59936 3.79592,0.09989 4.0956,0c1.59828,-0.59936 1.2986,-1.89796 1.19871,-3.49624c-0.09989,-0.99893 0,-0.89903 0.09989,-1.99785c0,-0.59936 -0.09989,-18.18045 -0.09989,-18.18045v0c0,-0.49946 0,-0.99893 -0.09989,-1.49839c0.19979,-6.59291 0.19979,-11.88722 0.19979,-12.28679c0.09989,-1.69817 0.19979,-3.39635 0.29968,-5.19441c0.19979,-5.09452 0.89903,-10.48872 3.49624,-15.28356c0.89903,-1.59828 2.09774,-2.79699 3.59613,-3.59613c1.49839,-0.79914 2.79699,-0.69925 4.0956,0.29968c1.89796,1.49839 3.09667,3.49624 3.69603,6.49302c0.79914,3.9957 1.09882,8.19119 1.09882,12.38668c-0.09989,2.39742 0,4.89474 0,7.29216c0,0.59936 0,1.49839 0.09989,2.49731v-0.09989v1.2986c0,3.89581 0,8.99033 0,9.48979c-0.09989,0.79914 0.29968,21.37701 0,26.17185c-0.19979,2.29753 -0.19979,3.29645 -0.19979,5.19441c-0.09989,1.2986 -0.39957,3.79592 0.89903,4.29538c1.3985,0.59936 2.89688,0.69925 4.39527,0.19979c1.09882,-0.39957 1.09882,-1.89796 1.09882,-4.49517c0,-1.2986 0.09989,-2.79699 0.09989,-4.0956c0.09989,-4.0956 0,-8.0913 0.09989,-9.78947c0,-1.3985 -0.19979,-10.38883 -0.19979,-11.68743z" data-paper-data="{&quot;glyphName&quot;:&quot;m&quot;,&quot;glyphIndex&quot;:3,&quot;lastGlyphOfWord&quot;:true,&quot;word&quot;:1}"></path></g><g data-paper-data="{&quot;fillRule&quot;:&quot;nonzero&quot;,&quot;fillRuleOriginal&quot;:&quot;nonzero&quot;,&quot;isIcon&quot;:true,&quot;iconStyle&quot;:&quot;standalone&quot;,&quot;selectedEffects&quot;:{&quot;container&quot;:&quot;&quot;,&quot;transformation&quot;:&quot;&quot;,&quot;pattern&quot;:&quot;particle-circle&quot;},&quot;bounds&quot;:{&quot;x&quot;:226.4159413616776,&quot;y&quot;:115,&quot;width&quot;:97.16811727664481,&quot;height&quot;:122.27625654330623},&quot;iconType&quot;:&quot;initial&quot;,&quot;initialText&quot;:&quot;P&quot;,&quot;rawInitialId&quot;:657,&quot;monogramSpecial&quot;:&quot;particle-circle&quot;,&quot;suitableAsStandaloneIcon&quot;:true}"><path d="M249.52894,137.93136c0,-2.35755 1.91118,-4.26873 4.26873,-4.26873c2.35755,0 4.26873,1.91118 4.26873,4.26873c0,2.35755 -1.91118,4.26873 -4.26873,4.26873c-2.35755,0 -4.26873,-1.91118 -4.26873,-4.26873zM229.64378,140.2234c0,-3.02203 2.44984,-5.47187 5.47187,-5.47187c3.02203,0 5.47187,2.44984 5.47187,5.47187c0,3.02203 -2.44984,5.47187 -5.47187,5.47187c-3.02203,0 -5.47187,-2.44984 -5.47187,-5.47187zM241.86793,143.11104c0,-2.25564 1.82856,-4.08419 4.08419,-4.08419c2.25564,0 4.08419,1.82856 4.08419,4.08419c0,2.25564 -1.82856,4.08419 -4.08419,4.08419c-2.25564,0 -4.08419,-1.82856 -4.08419,-4.08419zM234.80427,154.81891c0,-3.09889 2.51215,-5.61104 5.61104,-5.61104c3.09889,0 5.61104,2.51215 5.61104,5.61104c0,3.09889 -2.51215,5.61104 -5.61104,5.61104c-3.09889,0 -5.61104,-2.51215 -5.61104,-5.61104zM247.90878,157.80299c0,-3.45481 2.80068,-6.25548 6.25548,-6.25548c3.45481,0 6.25548,2.80068 6.25548,6.25548c0,3.45481 -2.80068,6.25548 -6.25548,6.25548c-3.45481,0 -6.25548,-2.80068 -6.25548,-6.25548zM228.45733,161.38783c0,-1.99326 1.61585,-3.60911 3.60911,-3.60911c1.99326,0 3.60911,1.61585 3.60911,3.60911c0,1.99326 -1.61585,3.60911 -3.60911,3.60911c-1.99326,0 -3.60911,-1.61585 -3.60911,-3.60911zM231.0015,149.30237c0,-1.28352 1.0405,-2.32401 2.32401,-2.32401c1.28352,0 2.32401,1.0405 2.32401,2.32401c0,1.28352 -1.0405,2.32401 -2.32401,2.32401c-1.28352,0 -2.32401,-1.0405 -2.32401,-2.32401zM226.76042,155.07608c0,-1.28352 1.0405,-2.32401 2.32401,-2.32401c1.28352,0 2.32401,1.0405 2.32401,2.32401c0,1.28352 -1.0405,2.32401 -2.32401,2.32401c-1.28352,0 -2.32401,-1.0405 -2.32401,-2.32401zM249.5419,148.45355c0,-1.28352 1.0405,-2.32401 2.32401,-2.32401c1.28352,0 2.32401,1.0405 2.32401,2.32401c0,1.28352 -1.0405,2.32401 -2.32401,2.32401c-1.28352,0 -2.32401,-1.0405 -2.32401,-2.32401zM256.5481,215.17417c0,-3.0249 2.45216,-5.47707 5.47707,-5.47707c3.0249,0 5.47707,2.45216 5.47707,5.47707c0,3.0249 -2.45216,5.47707 -5.47707,5.47707c-3.0249,0 -5.47707,-2.45216 -5.47707,-5.47707zM242.39411,216.3661c0,-2.9691 2.40693,-5.37603 5.37603,-5.37603c2.9691,0 5.37603,2.40693 5.37603,5.37603c0,2.9691 -2.40693,5.37603 -5.37603,5.37603c-2.9691,0 -5.37603,-2.40693 -5.37603,-5.37603zM229.85431,221.69986c0,-3.25524 2.6389,-5.89414 5.89414,-5.89414c3.25524,0 5.89414,2.6389 5.89414,5.89414c0,3.25524 -2.6389,5.89414 -5.89414,5.89414c-3.25524,0 -5.89414,-2.6389 -5.89414,-5.89414zM241.61669,229.61215c0,-3.36592 2.72862,-6.09454 6.09454,-6.09454c3.36592,0 6.09454,2.72862 6.09454,6.09454c0,3.36592 -2.72862,6.09454 -6.09454,6.09454c-3.36592,0 -6.09454,-2.72862 -6.09454,-6.09454zM254.74621,231.12422c0,-1.92528 1.56074,-3.48602 3.48602,-3.48602c1.92528,0 3.48602,1.56074 3.48602,3.48602c0,1.92528 -1.56074,3.48602 -3.48602,3.48602c-1.92528,0 -3.48602,-1.56074 -3.48602,-3.48602zM262.0445,228.03746c0,-1.34279 1.08855,-2.43133 2.43133,-2.43133c1.34279,0 2.43133,1.08855 2.43133,2.43133c0,1.34279 -1.08855,2.43133 -2.43133,2.43133c-1.34279,0 -2.43133,-1.08855 -2.43133,-2.43133zM261.77429,234.73607c0,-1.40291 1.13728,-2.54019 2.54019,-2.54019c1.40291,0 2.54019,1.13728 2.54019,2.54019c0,1.40291 -1.13728,2.54019 -2.54019,2.54019c-1.40291,0 -2.54019,-1.13728 -2.54019,-2.54019zM254.5464,223.65834c0,-1.63845 1.32823,-2.96667 2.96667,-2.96667c1.63845,0 2.96667,1.32823 2.96667,2.96667c0,1.63845 -1.32823,2.96667 -2.96667,2.96667c-1.63845,0 -2.96667,-1.32823 -2.96667,-2.96667zM229.28687,229.99118c0,-1.28352 1.0405,-2.32401 2.32401,-2.32401c1.28352,0 2.32401,1.0405 2.32401,2.32401c0,1.28352 -1.0405,2.32401 -2.32401,2.32401c-1.28352,0 -2.32401,-1.0405 -2.32401,-2.32401zM283.34343,147.57832c0,-2.07821 1.68472,-3.76293 3.76293,-3.76293c2.07821,0 3.76293,1.68472 3.76293,3.76293c0,2.07821 -1.68472,3.76293 -3.76293,3.76293c-2.07821,0 -3.76293,-1.68472 -3.76293,-3.76293zM284.55671,137.90207c0,-2.88791 2.34111,-5.22903 5.22903,-5.22903c2.88791,0 5.22903,2.34111 5.22903,5.22903c0,2.88791 -2.34111,5.22903 -5.22903,5.22903c-2.88791,0 -5.22903,-2.34111 -5.22903,-5.22903zM291.87331,128.93442c0,-2.98958 2.42353,-5.41311 5.41311,-5.41311c2.98958,0 5.41311,2.42353 5.41311,5.41311c0,2.98958 -2.42353,5.41311 -5.41311,5.41311c-2.98958,0 -5.41311,-2.42353 -5.41311,-5.41311zM292.38569,147.01021c0,-2.93993 2.38329,-5.32322 5.32322,-5.32322c2.93993,0 5.32322,2.38329 5.32322,5.32322c0,2.93993 -2.38329,5.32322 -5.32322,5.32322c-2.93993,0 -5.32322,-2.38329 -5.32322,-5.32322zM303.66559,135.1078c0,-3.25003 2.63467,-5.8847 5.8847,-5.8847c3.25003,0 5.8847,2.63467 5.8847,5.8847c0,3.25003 -2.63467,5.8847 -5.8847,5.8847c-3.25003,0 -5.8847,-2.63467 -5.8847,-5.8847zM310.34913,148.54566c0,-3.37479 2.73581,-6.1106 6.1106,-6.1106c3.37479,0 6.1106,2.73581 6.1106,6.1106c0,3.37479 -2.73581,6.1106 -6.1106,6.1106c-3.37479,0 -6.1106,-2.73581 -6.1106,-6.1106zM282.8529,122.95424c0,-2.67394 2.16766,-4.8416 4.8416,-4.8416c2.67394,0 4.8416,2.16766 4.8416,4.8416c0,2.67394 -2.16766,4.8416 -4.8416,4.8416c-2.67394,0 -4.8416,-2.16766 -4.8416,-4.8416zM305.32461,152.05125c0,-1.28352 1.0405,-2.32401 2.32401,-2.32401c1.28352,0 2.32401,1.0405 2.32401,2.32401c0,1.28352 -1.0405,2.32401 -2.32401,2.32401c-1.28352,0 -2.32401,-1.0405 -2.32401,-2.32401zM303.82491,144.91882c0,-1.28352 1.0405,-2.32401 2.32401,-2.32401c1.28352,0 2.32401,1.0405 2.32401,2.32401c0,1.28352 -1.0405,2.32401 -2.32401,2.32401c-1.28352,0 -2.32401,-1.0405 -2.32401,-2.32401zM240.04604,167.51985c0,-3.09857 2.51189,-5.61046 5.61046,-5.61046c3.09857,0 5.61046,2.51189 5.61046,5.61046c0,3.09857 -2.51189,5.61046 -5.61046,5.61046c-3.09857,0 -5.61046,-2.51189 -5.61046,-5.61046zM226.41676,173.4699c0,-3.1552 2.55779,-5.71299 5.71299,-5.71299c3.1552,0 5.71299,2.55779 5.71299,5.71299c0,3.1552 -2.55779,5.71299 -5.71299,5.71299c-3.1552,0 -5.71299,-2.55779 -5.71299,-5.71299zM253.92845,173.91249c0,-3.06429 2.4841,-5.54839 5.54839,-5.54839c3.06429,0 5.54839,2.4841 5.54839,5.54839c0,3.06429 -2.4841,5.54839 -5.54839,5.54839c-3.06429,0 -5.54839,-2.4841 -5.54839,-5.54839zM243.68814,182.36403c0,-3.41918 2.77179,-6.19098 6.19098,-6.19098c3.41918,0 6.19098,2.77179 6.19098,6.19098c0,3.41918 -2.77179,6.19098 -6.19098,6.19098c-3.41918,0 -6.19098,-2.77179 -6.19098,-6.19098zM235.343,182.73122c0,-1.9416 1.57398,-3.51558 3.51558,-3.51558c1.9416,0 3.51558,1.57398 3.51558,3.51558c0,1.9416 -1.57398,3.51558 -3.51558,3.51558c-1.9416,0 -3.51558,-1.57398 -3.51558,-3.51558zM238.66673,175.4928c0,-1.3679 1.1089,-2.4768 2.4768,-2.4768c1.3679,0 2.4768,1.1089 2.4768,2.4768c0,1.3679 -1.1089,2.4768 -2.4768,2.4768c-1.3679,0 -2.4768,-1.1089 -2.4768,-2.4768zM266.02395,174.87808c0,-1.56909 1.272,-2.84109 2.84109,-2.84109c1.56909,0 2.84109,1.272 2.84109,2.84109c0,1.56909 -1.272,2.84109 -2.84109,2.84109c-1.56909,0 -2.84109,-1.272 -2.84109,-2.84109zM258.17757,165.05103c0,-1.28352 1.0405,-2.32401 2.32401,-2.32401c1.28352,0 2.32401,1.0405 2.32401,2.32401c0,1.28352 -1.0405,2.32401 -2.32401,2.32401c-1.28352,0 -2.32401,-1.0405 -2.32401,-2.32401zM281.47944,183.93536c0,-2.97235 2.40956,-5.38191 5.38191,-5.38191c2.97235,0 5.38191,2.40956 5.38191,5.38191c0,2.97235 -2.40956,5.38191 -5.38191,5.38191c-2.97235,0 -5.38191,-2.40956 -5.38191,-5.38191zM299.56089,185.87132c0,-2.96104 2.4004,-5.36143 5.36143,-5.36143c2.96104,0 5.36143,2.4004 5.36143,5.36143c0,2.96104 -2.4004,5.36143 -5.36143,5.36143c-2.96104,0 -5.36143,-2.4004 -5.36143,-5.36143zM291.60215,194.48133c0,-2.94565 2.38792,-5.33357 5.33357,-5.33357c2.94565,0 5.33357,2.38792 5.33357,5.33357c0,2.94565 -2.38792,5.33357 -5.33357,5.33357c-2.94565,0 -5.33357,-2.38792 -5.33357,-5.33357zM279.89642,196.56233c0,-2.99387 2.42701,-5.42089 5.42089,-5.42089c2.99387,0 5.42089,2.42701 5.42089,5.42089c0,2.99387 -2.42701,5.42089 -5.42089,5.42089c-2.99387,0 -5.42089,-2.42701 -5.42089,-5.42089zM268.36732,187.231c0,-3.37833 2.73868,-6.11702 6.11702,-6.11702c3.37833,0 6.11702,2.73868 6.11702,6.11702c0,3.37833 -2.73868,6.11702 -6.11702,6.11702c-3.37833,0 -6.11702,-2.73868 -6.11702,-6.11702zM264.04916,199.57769c0,-3.00957 2.43974,-5.4493 5.4493,-5.4493c3.00957,0 5.4493,2.43974 5.4493,5.4493c0,3.00957 -2.43974,5.4493 -5.4493,5.4493c-3.00957,0 -5.4493,-2.43974 -5.4493,-5.4493zM276.29534,202.31568c0,-1.29505 1.04985,-2.34489 2.34489,-2.34489c1.29505,0 2.34489,1.04985 2.34489,2.34489c0,1.29505 -1.04985,2.34489 -2.34489,2.34489c-1.29505,0 -2.34489,-1.04985 -2.34489,-2.34489zM286.45647,159.59293c0,-3.82816 3.10334,-6.9315 6.9315,-6.9315c3.82816,0 6.9315,3.10334 6.9315,6.9315c0,3.82816 -3.10334,6.9315 -6.9315,6.9315c-3.82816,0 -6.9315,-3.10334 -6.9315,-6.9315zM301.51618,161.17243c0,-3.17935 2.57738,-5.75673 5.75673,-5.75673c3.17935,0 5.75673,2.57738 5.75673,5.75673c0,3.17935 -2.57738,5.75673 -5.75673,5.75673c-3.17935,0 -5.75673,-2.57738 -5.75673,-5.75673zM312.9329,166.31873c0,-2.94124 2.38434,-5.32558 5.32558,-5.32558c2.94124,0 5.32558,2.38434 5.32558,5.32558c0,2.94124 -2.38434,5.32558 -5.32558,5.32558c-2.94124,0 -5.32558,-2.38434 -5.32558,-5.32558zM288.96326,172.84023c0,-2.89759 2.34896,-5.24655 5.24655,-5.24655c2.89759,0 5.24655,2.34896 5.24655,5.24655c0,2.89759 -2.34896,5.24655 -5.24655,5.24655c-2.89759,0 -5.24655,-2.34896 -5.24655,-5.24655zM273.31174,174.11842c0,-3.06613 2.48559,-5.55172 5.55172,-5.55172c3.06613,0 5.55172,2.48559 5.55172,5.55172c0,3.06613 -2.48559,5.55172 -5.55172,5.55172c-3.06613,0 -5.55172,-2.48559 -5.55172,-5.55172zM308.87316,178.7157c0,-2.88791 2.34111,-5.22903 5.22903,-5.22903c2.88791,0 5.22903,2.34111 5.22903,5.22903c0,2.88791 -2.34111,5.22903 -5.22903,5.22903c-2.88791,0 -5.22903,-2.34111 -5.22903,-5.22903zM305.37153,170.77233c0,-1.56889 1.27183,-2.84072 2.84072,-2.84072c1.56889,0 2.84072,1.27183 2.84072,2.84072c0,1.56889 -1.27183,2.84072 -2.84072,2.84072c-1.56889,0 -2.84072,-1.27183 -2.84072,-2.84072zM292.91527,181.39711c0,-1.28352 1.0405,-2.32401 2.32401,-2.32401c1.28352,0 2.32401,1.0405 2.32401,2.32401c0,1.28352 -1.0405,2.32401 -2.32401,2.32401c-1.28352,0 -2.32401,-1.0405 -2.32401,-2.32401zM282.70026,167.66247c0,-1.28352 1.0405,-2.32401 2.32401,-2.32401c1.28352,0 2.32401,1.0405 2.32401,2.32401c0,1.28352 -1.0405,2.32401 -2.32401,2.32401c-1.28352,0 -2.32401,-1.0405 -2.32401,-2.32401zM255.70785,146.06295c0,-2.98879 2.42289,-5.41167 5.41167,-5.41167c2.98879,0 5.41167,2.42289 5.41167,5.41167c0,2.98879 -2.42289,5.41167 -5.41167,5.41167c-2.98879,0 -5.41167,-2.42289 -5.41167,-5.41167zM261.14978,129.14044c0,-2.96882 2.4067,-5.37552 5.37552,-5.37552c2.96882,0 5.37552,2.4067 5.37552,5.37552c0,2.96882 -2.4067,5.37552 -5.37552,5.37552c-2.96882,0 -5.37552,-2.4067 -5.37552,-5.37552zM272.73226,143.03233c0,-2.93813 2.38183,-5.31996 5.31996,-5.31996c2.93813,0 5.31996,2.38183 5.31996,5.31996c0,2.93813 -2.38183,5.31996 -5.31996,5.31996c-2.93813,0 -5.31996,-2.38183 -5.31996,-5.31996zM274.11475,130.84063c0,-3.00548 2.43642,-5.4419 5.4419,-5.4419c3.00548,0 5.4419,2.43642 5.4419,5.4419c0,3.00548 -2.43642,5.4419 -5.4419,5.4419c-3.00548,0 -5.4419,-2.43642 -5.4419,-5.4419zM263.63714,119.24857c0,-1.92528 1.56074,-3.48602 3.48602,-3.48602c1.92528,0 3.48602,1.56074 3.48602,3.48602c0,1.92528 -1.56074,3.48602 -3.48602,3.48602c-1.92528,0 -3.48602,-1.56074 -3.48602,-3.48602zM267.41545,147.75153c0,-1.28352 1.0405,-2.32401 2.32401,-2.32401c1.28352,0 2.32401,1.0405 2.32401,2.32401c0,1.28352 -1.0405,2.32401 -2.32401,2.32401c-1.28352,0 -2.32401,-1.0405 -2.32401,-2.32401zM272.81345,122.6848c0,-1.45794 1.1819,-2.63984 2.63984,-2.63984c1.45794,0 2.63984,1.1819 2.63984,2.63984c0,1.45794 -1.1819,2.63984 -2.63984,2.63984c-1.45794,0 -2.63984,-1.1819 -2.63984,-2.63984zM263.75219,138.22136c0,-1.46796 1.19002,-2.65798 2.65798,-2.65798c1.46796,0 2.65798,1.19002 2.65798,2.65798c0,1.46796 -1.19002,2.65798 -2.65798,2.65798c-1.46796,0 -2.65798,-1.19002 -2.65798,-2.65798zM252.64291,119.98734c0,-2.75443 2.23291,-4.98734 4.98734,-4.98734c2.75443,0 4.98734,2.23291 4.98734,4.98734c0,2.75443 -2.23291,4.98734 -4.98734,4.98734c-2.75443,0 -4.98734,-2.23291 -4.98734,-4.98734zM256.8835,186.47213c0,-2.88791 2.34111,-5.22903 5.22903,-5.22903c2.88791,0 5.22903,2.34111 5.22903,5.22903c0,2.88791 -2.34111,5.22903 -5.22903,5.22903c-2.88791,0 -5.22903,-2.34111 -5.22903,-5.22903zM231.97597,192.38354c0,-2.88791 2.34111,-5.22903 5.22903,-5.22903c2.88791,0 5.22903,2.34111 5.22903,5.22903c0,2.88791 -2.34111,5.22903 -5.22903,5.22903c-2.88791,0 -5.22903,-2.34111 -5.22903,-5.22903zM251.04676,193.57342c0,-1.47554 1.19617,-2.67171 2.67171,-2.67171c1.47554,0 2.67171,1.19617 2.67171,2.67171c0,1.47554 -1.19617,2.67171 -2.67171,2.67171c-1.47554,0 -2.67171,-1.19617 -2.67171,-2.67171zM252.69624,201.47182c0,-2.88791 2.34111,-5.22903 5.22903,-5.22903c2.88791,0 5.22903,2.34111 5.22903,5.22903c0,2.88791 -2.34111,5.22903 -5.22903,5.22903c-2.88791,0 -5.22903,-2.34111 -5.22903,-5.22903zM227.85658,207.17105c0,-4.19089 3.39738,-7.58827 7.58827,-7.58827c4.19089,0 7.58827,3.39738 7.58827,7.58827c0,4.19089 -3.39738,7.58827 -7.58827,7.58827c-4.19089,0 -7.58827,-3.39738 -7.58827,-7.58827zM250.01248,208.90434c0,-1.28352 1.0405,-2.32401 2.32401,-2.32401c1.28352,0 2.32401,1.0405 2.32401,2.32401c0,1.28352 -1.0405,2.32401 -2.32401,2.32401c-1.28352,0 -2.32401,-1.0405 -2.32401,-2.32401zM246.27781,203.21754c0,-1.52991 1.24024,-2.77015 2.77015,-2.77015c1.52991,0 2.77015,1.24024 2.77015,2.77015c0,1.52991 -1.24024,2.77015 -2.77015,2.77015c-1.52991,0 -2.77015,-1.24024 -2.77015,-2.77015zM226.77346,188.53588c0,-1.39188 1.12835,-2.52023 2.52023,-2.52023c1.39188,0 2.52023,1.12835 2.52023,2.52023c0,1.39188 -1.12835,2.52023 -2.52023,2.52023c-1.39188,0 -2.52023,-1.12835 -2.52023,-2.52023zM232.58538,123.32674c0,-3.14873 2.55255,-5.70128 5.70128,-5.70128c3.14873,0 5.70128,2.55255 5.70128,5.70128c0,3.14873 -2.55255,5.70128 -5.70128,5.70128c-3.14873,0 -5.70128,-2.55255 -5.70128,-5.70128zM226.93234,124.21038c0,-1.28352 1.0405,-2.32401 2.32401,-2.32401c1.28352,0 2.32401,1.0405 2.32401,2.32401c0,1.28352 -1.0405,2.32401 -2.32401,2.32401c-1.28352,0 -2.32401,-1.0405 -2.32401,-2.32401zM244.17557,128.3436c0,-2.88791 2.34111,-5.22903 5.22903,-5.22903c2.88791,0 5.22903,2.34111 5.22903,5.22903c0,2.88791 -2.34111,5.22903 -5.22903,5.22903c-2.88791,0 -5.22903,-2.34111 -5.22903,-5.22903zM227.89158,130.94156c0,-1.92528 1.56074,-3.48602 3.48602,-3.48602c1.92528,0 3.48602,1.56074 3.48602,3.48602c0,1.92528 -1.56074,3.48602 -3.48602,3.48602c-1.92528,0 -3.48602,-1.56074 -3.48602,-3.48602zM226.41594,117.72543c0,-1.39833 1.13357,-2.53189 2.53189,-2.53189c1.39833,0 2.53189,1.13357 2.53189,2.53189c0,1.39833 -1.13357,2.53189 -2.53189,2.53189c-1.39833,0 -2.53189,-1.13357 -2.53189,-2.53189z" data-paper-data="{&quot;isPathIcon&quot;:true}"></path></g></g></g><g class="watermark-group" style="opacity:0.040000010281801224"><path class="watermark-path" d="M129.52,370.3a11.88,11.88,0,0,1,2.58,5.58,12,12,0,0,1,.11,3,11.81,11.81,0,0,1-.64,2.93,12.34,12.34,0,0,1-1.41,2.72,11.65,11.65,0,0,1-2.13,2.32,12,12,0,0,1-2.64,1.69,13,13,0,0,1-2.91.9,12.47,12.47,0,0,1-3,.12,12.17,12.17,0,0,1-2.93-.64,11.8,11.8,0,0,1-2.72-1.38,12.19,12.19,0,0,1-4-4.79,11.85,11.85,0,0,1-.89-2.92,12.14,12.14,0,0,1-.13-3,11.54,11.54,0,0,1,.64-2.92,11.67,11.67,0,0,1,3.5-5,11.44,11.44,0,0,1,2.67-1.69,11.64,11.64,0,0,1,2.92-.91,10.71,10.71,0,0,1,3-.12,11.68,11.68,0,0,1,5.66,2,11.7,11.7,0,0,1,2.34,2.12m-1.4,8.76a13,13,0,0,1-1.22,2.32,9.68,9.68,0,0,1-1.81,2,7.44,7.44,0,0,1-2.38,1.37,6.17,6.17,0,0,1-5.11-.46,8.73,8.73,0,0,1-3.85-4.58,6.69,6.69,0,0,1-.34-2.66,6.09,6.09,0,0,1,.77-2.47,7.15,7.15,0,0,1,1.75-2.11,9.58,9.58,0,0,1,1.09-.81,8.23,8.23,0,0,1,1.12-.63,8.14,8.14,0,0,1,1.19-.46,12.71,12.71,0,0,1,1.32-.37l2,2.38a12.83,12.83,0,0,0-1.56.17,7.86,7.86,0,0,0-1.23.32,4.5,4.5,0,0,0-1,.49,6.41,6.41,0,0,0-.93.67,4.49,4.49,0,0,0-1.15,1.39,3.87,3.87,0,0,0-.45,1.58,4.12,4.12,0,0,0,.26,1.63,6.11,6.11,0,0,0,2.36,2.82,4.43,4.43,0,0,0,1.57.53,3.91,3.91,0,0,0,1.62-.17,4.71,4.71,0,0,0,1.57-.89,10.5,10.5,0,0,0,.83-.79,5.71,5.71,0,0,0,.65-.93,10.13,10.13,0,0,0,.54-1.14,12.24,12.24,0,0,0,.44-1.49l2,2.33m-14.46,4.55a8.86,8.86,0,0,0,2.78,2.22,9,9,0,0,0,3.29.94,9.15,9.15,0,0,0,3.39-.37,8.68,8.68,0,0,0,3.11-1.69,8.8,8.8,0,0,0,2.22-2.78,9.15,9.15,0,0,0,1-3.29,8.95,8.95,0,0,0-4.83-8.76,9,9,0,0,0-6.73-.57,9,9,0,0,0-5.33,4.47,8.94,8.94,0,0,0-.57,6.71,8.76,8.76,0,0,0,1.7,3.12"></path><path class="watermark-path" d="M147,349c-.48.12-1.09.31-1.82.57a24.37,24.37,0,0,0-2.4,1A28.35,28.35,0,0,0,140,352a20.72,20.72,0,0,0-2.71,1.94c-.7.59-1.28,1.11-1.74,1.57a15.07,15.07,0,0,0-1.1,1.22,4.09,4.09,0,0,0-.59.92,2.32,2.32,0,0,0-.22.64,1.16,1.16,0,0,0,0,.47,1.83,1.83,0,0,0,.18.29,1.15,1.15,0,0,0,1,.37,5.54,5.54,0,0,0,1.51-.38q.87-.35,1.95-.9l2.26-1.18q1.2-.65,2.49-1.29c.87-.44,1.73-.83,2.59-1.17a18.94,18.94,0,0,1,2.6-.81,9.27,9.27,0,0,1,2.46-.29,6.25,6.25,0,0,1,2.24.49,5.12,5.12,0,0,1,1.89,1.47,6.35,6.35,0,0,1,1.41,2.61,6,6,0,0,1,.09,2.6,8.3,8.3,0,0,1-.9,2.52,17.79,17.79,0,0,1-1.62,2.37,23.92,23.92,0,0,1-2,2.15c-.72.67-1.41,1.29-2.09,1.87a33.79,33.79,0,0,1-5.33,3.7,32.29,32.29,0,0,1-4.91,2.28l-3.61-4.3a21.38,21.38,0,0,0,5.39-1.87,27.2,27.2,0,0,0,5.4-3.56,21.59,21.59,0,0,0,2.38-2.27,8.67,8.67,0,0,0,1.18-1.7,2.32,2.32,0,0,0,.27-1.19,1.34,1.34,0,0,0-.28-.74,1.21,1.21,0,0,0-1-.42,4.32,4.32,0,0,0-1.55.34,15.77,15.77,0,0,0-2,.88c-.72.37-1.48.77-2.27,1.21l-2.45,1.3c-.85.45-1.7.85-2.56,1.21a22.37,22.37,0,0,1-2.54.86,10,10,0,0,1-2.43.32,5.76,5.76,0,0,1-2.2-.45,5,5,0,0,1-1.89-1.45,6.12,6.12,0,0,1-1.31-2.41,6,6,0,0,1-.1-2.41,8.28,8.28,0,0,1,.81-2.38,14.06,14.06,0,0,1,1.49-2.24,22.37,22.37,0,0,1,1.85-2.05q1-1,2-1.77c.7-.59,1.44-1.15,2.23-1.7s1.62-1.06,2.44-1.53,1.63-.91,2.43-1.3,1.58-.75,2.3-1L147,349"></path><path class="watermark-path" d="M186.76,337.57l-10.6-12.63,3.92,18.24-4.66,3.91-17.27-7,10.6,12.63-4.86,4.07-15.09-18,6.59-5.54,18.69,7.52-4.15-19.71,6.57-5.52,15.09,18-4.83,4.05"></path><path class="watermark-path" d="M208.84,313.24l-10,8.42,1.16,4.82L194.56,331l-5.68-25.89,5.42-4.55,24.51,10.09-5.42,4.55-4.55-2m-11.23,3.45,6.57-5.52-8.83-3.87,2.26,9.39"></path><path class="watermark-path" d="M227.49,281.38c-.48.12-1.09.31-1.82.57a24.37,24.37,0,0,0-2.4,1,26.11,26.11,0,0,0-2.7,1.47,20.72,20.72,0,0,0-2.71,1.94c-.7.59-1.28,1.11-1.74,1.57a13.39,13.39,0,0,0-1.1,1.22,4.29,4.29,0,0,0-.59.91,2.48,2.48,0,0,0-.22.65,1.16,1.16,0,0,0,0,.47,1.83,1.83,0,0,0,.18.29,1.15,1.15,0,0,0,1,.37,5.54,5.54,0,0,0,1.51-.38q.87-.34,2-.9l2.26-1.18q1.2-.64,2.49-1.29c.87-.44,1.73-.83,2.59-1.17a18.94,18.94,0,0,1,2.6-.81,9.27,9.27,0,0,1,2.46-.29,6.08,6.08,0,0,1,2.24.49,5.09,5.09,0,0,1,1.89,1.46,6.47,6.47,0,0,1,1.41,2.61,6.07,6.07,0,0,1,.09,2.61,8.3,8.3,0,0,1-.9,2.52,16.32,16.32,0,0,1-1.63,2.36,21.41,21.41,0,0,1-2,2.16c-.72.67-1.41,1.29-2.1,1.86a33.36,33.36,0,0,1-5.32,3.71,31.92,31.92,0,0,1-4.92,2.28l-3.6-4.3a21.38,21.38,0,0,0,5.39-1.87,27.2,27.2,0,0,0,5.4-3.56,21.59,21.59,0,0,0,2.38-2.27,8.67,8.67,0,0,0,1.18-1.7A2.32,2.32,0,0,0,231,293a1.34,1.34,0,0,0-.28-.74,1.21,1.21,0,0,0-1-.42,4.32,4.32,0,0,0-1.55.34,16.54,16.54,0,0,0-2,.88c-.71.37-1.47.77-2.26,1.21l-2.46,1.3c-.84.44-1.7.85-2.55,1.21a24.53,24.53,0,0,1-2.54.86A10,10,0,0,1,214,298a5.76,5.76,0,0,1-2.2-.45,5,5,0,0,1-1.89-1.45,6.12,6.12,0,0,1-1.31-2.41,5.78,5.78,0,0,1-.1-2.41,8,8,0,0,1,.81-2.38,14.61,14.61,0,0,1,1.49-2.25,22.26,22.26,0,0,1,1.85-2q1-1,2-1.77c.7-.59,1.44-1.15,2.23-1.7s1.62-1.06,2.44-1.53,1.63-.91,2.43-1.31,1.58-.74,2.3-1l3.5,4.16"></path><path class="watermark-path" d="M261.64,274.74l-6.29-7.5L243,277.61l6.3,7.5-4.86,4.07-15.09-18,4.85-4.08,5.49,6.55L252,263.3l-5.49-6.55,4.86-4.07,15.09,18-4.86,4.08"></path><path class="watermark-path" d="M272.18,265.9l-15.09-18,4.86-4.08,15.09,18-4.86,4.08"></path><path class="watermark-path" d="M299.65,242.85l-22.51-2.18L287.51,253l-4.85,4.08-15.1-18,5.28-4.43,22.56,2.22L285,224.5l4.83-4.06,15.09,18-5.26,4.42"></path><path class="watermark-path" d="M306.68,205.52a31.88,31.88,0,0,1,5.29-3.66,34.48,34.48,0,0,1,5.14-2.35l3.69,4.39a20.77,20.77,0,0,0-2.37.61,20.47,20.47,0,0,0-2.61,1,25.12,25.12,0,0,0-2.76,1.49,23.9,23.9,0,0,0-2.8,2,20.42,20.42,0,0,0-2.8,2.77,12.77,12.77,0,0,0-1.64,2.52,7,7,0,0,0-.68,2.24,6,6,0,0,0,.66,3.64,8.16,8.16,0,0,0,.94,1.38,9.12,9.12,0,0,0,1.08,1.07,6.39,6.39,0,0,0,1.47.91,6.73,6.73,0,0,0,1.88.48,6.54,6.54,0,0,0,2.28-.18,11.67,11.67,0,0,0,2.74-1.07,19.38,19.38,0,0,0,3.18-2.22c.57-.48,1.06-.92,1.46-1.31a14.57,14.57,0,0,0,1-1.13,11.46,11.46,0,0,0,.81-1.05l.74-1.09-1.82-2.17-5.45,4.57-3.31-3.94,10.31-8.65,7.71,9.19a29,29,0,0,1-1.67,2.43q-1,1.26-2.1,2.52c-.74.84-1.5,1.65-2.3,2.44s-1.58,1.5-2.33,2.14a31,31,0,0,1-3.59,2.61,22.55,22.55,0,0,1-3.64,1.83,15.64,15.64,0,0,1-3.63.89,10.72,10.72,0,0,1-3.49-.15,10.45,10.45,0,0,1-3.28-1.33,12.54,12.54,0,0,1-3-2.67,12,12,0,0,1-2.08-3.44,10.45,10.45,0,0,1-.71-3.5,11.14,11.14,0,0,1,.51-3.51,15.72,15.72,0,0,1,1.56-3.43,21.62,21.62,0,0,1,2.42-3.28,30.3,30.3,0,0,1,3.15-3"></path><path class="watermark-path" d="M336.91,211.59l-15.1-18,4.86-4.08,11.79,14,13.13-11,3.31,3.94-18,15.1"></path><path class="watermark-path" d="M374.54,164.71a12.28,12.28,0,0,1,2.59,4.81,10.44,10.44,0,0,1,0,5,14.62,14.62,0,0,1-2.33,5,25.55,25.55,0,0,1-4.56,4.85,26.07,26.07,0,0,1-5.6,3.67,14.79,14.79,0,0,1-5.38,1.43,10.43,10.43,0,0,1-4.94-.89,13.24,13.24,0,0,1-6.87-8.18,10.48,10.48,0,0,1,0-5,14.51,14.51,0,0,1,2.36-5,25.23,25.23,0,0,1,4.57-4.89,25,25,0,0,1,5.59-3.64,14.45,14.45,0,0,1,5.35-1.43,10.31,10.31,0,0,1,4.93.92,12.22,12.22,0,0,1,4.28,3.38m-4.91,4.11a8.36,8.36,0,0,0-2-1.72,5.5,5.5,0,0,0-2.65-.85,7.72,7.72,0,0,0-3.32.57,14.49,14.49,0,0,0-4,2.52,16.72,16.72,0,0,0-2.38,2.4,10.15,10.15,0,0,0-1.39,2.24,6.71,6.71,0,0,0-.56,2.1,5.69,5.69,0,0,0,.1,1.9,6.21,6.21,0,0,0,.61,1.69,9.85,9.85,0,0,0,1,1.44,10.48,10.48,0,0,0,1.26,1.23,6.67,6.67,0,0,0,1.57.92,6.1,6.1,0,0,0,1.85.41,6.8,6.8,0,0,0,2.15-.2,11.06,11.06,0,0,0,2.45-1,17.67,17.67,0,0,0,2.77-1.94,14.39,14.39,0,0,0,3.18-3.52,7.74,7.74,0,0,0,1.14-3.17,5.54,5.54,0,0,0-.37-2.74,8.52,8.52,0,0,0-1.36-2.3"></path><path class="watermark-path" d="M382.66,141.76A32.3,32.3,0,0,1,388,138.1a34.12,34.12,0,0,1,5.15-2.35l3.69,4.4a19.62,19.62,0,0,0-2.37.6,22.08,22.08,0,0,0-2.61,1,26,26,0,0,0-2.77,1.49,23.9,23.9,0,0,0-2.8,2,21,21,0,0,0-2.8,2.78,13.19,13.19,0,0,0-1.64,2.51,7.29,7.29,0,0,0-.68,2.24,6.36,6.36,0,0,0,.06,2,5.8,5.8,0,0,0,.61,1.68,8.12,8.12,0,0,0,.93,1.38,9.16,9.16,0,0,0,1.08,1.08,6.56,6.56,0,0,0,1.48.9,6,6,0,0,0,1.87.48,6.76,6.76,0,0,0,2.28-.17,12,12,0,0,0,2.74-1.08,18.57,18.57,0,0,0,3.18-2.22c.58-.48,1.06-.92,1.46-1.31s.75-.77,1.05-1.12.57-.72.81-1.06l.73-1.09-1.82-2.17-5.45,4.57-3.3-3.94,10.3-8.65,7.71,9.19a29,29,0,0,1-1.67,2.43q-1,1.26-2.1,2.52c-.73.84-1.5,1.66-2.3,2.44s-1.57,1.5-2.33,2.14a31,31,0,0,1-3.59,2.61,22.15,22.15,0,0,1-3.64,1.83,15.56,15.56,0,0,1-3.62.89,11,11,0,0,1-3.49-.14,10.84,10.84,0,0,1-3.28-1.33,12.82,12.82,0,0,1-3-2.68,12.12,12.12,0,0,1-2.08-3.43A10.71,10.71,0,0,1,375,155a11.18,11.18,0,0,1,.51-3.51,15.51,15.51,0,0,1,1.57-3.43,21.44,21.44,0,0,1,2.42-3.28,30.19,30.19,0,0,1,3.14-3"></path><path class="watermark-path" d="M428.63,119.31a12.26,12.26,0,0,1,2.59,4.82,10.44,10.44,0,0,1,0,5,14.53,14.53,0,0,1-2.34,5,25.29,25.29,0,0,1-4.56,4.86,26,26,0,0,1-5.59,3.67,14.84,14.84,0,0,1-5.38,1.43,10.61,10.61,0,0,1-4.95-.89,12.15,12.15,0,0,1-4.3-3.37,12,12,0,0,1-2.56-4.81,10.48,10.48,0,0,1,0-5,14.39,14.39,0,0,1,2.35-5,27.89,27.89,0,0,1,10.16-8.53,14.49,14.49,0,0,1,5.36-1.43,10.27,10.27,0,0,1,4.92.92,12.21,12.21,0,0,1,4.28,3.37m-4.91,4.12a8.17,8.17,0,0,0-2-1.72,5.58,5.58,0,0,0-2.65-.86,7.86,7.86,0,0,0-3.31.58,14.49,14.49,0,0,0-4,2.52,16.21,16.21,0,0,0-2.38,2.4,9.85,9.85,0,0,0-1.4,2.24,7,7,0,0,0-.56,2.1,6,6,0,0,0,.1,1.9,6.23,6.23,0,0,0,.62,1.69,8.49,8.49,0,0,0,1,1.44,9.18,9.18,0,0,0,1.26,1.23,6.67,6.67,0,0,0,1.57.92,6,6,0,0,0,1.84.41,6.86,6.86,0,0,0,2.16-.2,11.26,11.26,0,0,0,2.45-1,17.62,17.62,0,0,0,2.76-1.94,14.67,14.67,0,0,0,3.19-3.52,7.71,7.71,0,0,0,1.13-3.17,5.53,5.53,0,0,0-.36-2.74,8.55,8.55,0,0,0-1.37-2.3"></path></g></svg>