<?xml version="1.0" standalone="no"?>
<!DOCTYPE svg PUBLIC "-//W3C//DTD SVG 20010904//EN"
 "http://www.w3.org/TR/2001/REC-SVG-20010904/DTD/svg10.dtd">
<svg version="1.0" xmlns="http://www.w3.org/2000/svg"
 width="1353.000000pt" height="1353.000000pt" viewBox="0 0 1353.000000 1353.000000"
 preserveAspectRatio="xMidYMid meet">
<metadata>
Created by potrace 1.14, written by Peter Selinger 2001-2017
</metadata>
<g transform="translate(0.000000,1353.000000) scale(0.100000,-0.100000)"
fill="#000000" stroke="none">
<path d="M5770 9543 c-78 -39 -122 -122 -113 -213 5 -52 21 -86 59 -124 29
-29 84 -62 84 -50 0 4 6 2 13 -3 26 -20 122 -5 165 25 86 62 117 164 78 257
-48 115 -176 163 -286 108z"/>
<path d="M4608 9537 c-14 -12 -31 -31 -37 -43 -22 -45 11 -132 54 -141 44 -9
61 -9 87 -1 77 27 82 155 6 194 -39 20 -79 17 -110 -9z"/>
<path d="M6215 9527 c-86 -28 -127 -124 -86 -204 44 -87 153 -110 223 -49 121
103 14 301 -137 253z"/>
<path d="M4997 9449 c-53 -12 -109 -55 -143 -109 -25 -39 -29 -55 -29 -120 0
-84 15 -126 64 -176 42 -43 88 -63 153 -68 96 -7 187 45 228 130 88 189 -72
389 -273 343z"/>
<path d="M7050 9423 c-113 -39 -167 -168 -116 -279 74 -159 290 -158 365 1 25
53 26 95 5 158 -35 102 -148 156 -254 120z"/>
<path d="M6571 9346 c-56 -18 -92 -88 -72 -139 13 -32 46 -67 64 -67 9 0 18
-4 22 -9 6 -11 58 2 90 23 13 9 29 32 35 51 17 52 -8 118 -53 136 -43 18 -47
18 -86 5z"/>
<path d="M4619 9251 c-66 -60 -29 -171 57 -171 46 0 70 14 89 50 22 43 18 76
-13 112 -39 43 -93 46 -133 9z"/>
<path d="M5445 9209 c-58 -22 -90 -51 -117 -104 -42 -82 -28 -187 34 -252 84
-89 221 -94 310 -11 81 77 89 214 17 301 -61 74 -155 100 -244 66z"/>
<path d="M7455 9202 c-34 -6 -98 -55 -129 -100 -57 -81 -45 -211 27 -283 89
-88 229 -91 320 -7 37 35 67 107 68 165 4 146 -132 253 -286 225z"/>
<path d="M6150 9183 c-48 -20 -117 -95 -129 -141 -24 -83 -8 -158 44 -219 146
-171 418 -48 392 177 -9 74 -53 137 -122 173 -49 25 -137 29 -185 10z"/>
<path d="M6682 9108 c-178 -91 -175 -337 6 -420 106 -48 226 -8 287 97 64 108
17 262 -98 322 -47 24 -149 25 -195 1z"/>
<path d="M4730 9039 c0 -5 -5 -9 -11 -9 -6 0 -25 -11 -44 -25 -37 -29 -57 -88
-48 -144 6 -39 72 -110 103 -112 11 -1 30 -2 43 -3 95 -8 169 108 130 204 -18
46 -57 78 -102 85 -20 4 -44 8 -53 10 -10 2 -18 -1 -18 -6z"/>
<path d="M7946 8954 c-56 -20 -102 -58 -133 -112 -37 -62 -40 -175 -6 -238 80
-150 273 -181 392 -63 118 117 86 325 -61 400 -50 25 -139 31 -192 13z"/>
<path d="M7115 8801 c-82 -38 -129 -111 -128 -202 2 -183 191 -282 343 -178
135 92 115 312 -35 380 -51 24 -129 24 -180 0z"/>
<path d="M5622 8759 c-78 -39 -116 -141 -84 -224 21 -52 39 -72 87 -97 99 -51
224 7 254 118 9 35 -4 109 -24 140 -50 76 -153 104 -233 63z"/>
<path d="M4863 8725 c-102 -30 -166 -121 -162 -229 5 -136 104 -231 232 -222
68 6 79 9 110 29 154 100 145 328 -16 406 -54 26 -111 32 -164 16z"/>
<path d="M6190 8693 c-52 -19 -82 -78 -68 -133 15 -58 48 -83 109 -83 43 0 54
4 75 28 30 35 38 65 30 109 -12 63 -84 102 -146 79z"/>
<path d="M6633 8594 c-54 -20 -117 -90 -131 -147 -27 -105 13 -207 102 -257
93 -54 199 -37 270 41 102 113 77 269 -55 353 -37 24 -135 29 -186 10z"/>
<path d="M5344 8550 c-112 -25 -171 -149 -119 -249 14 -29 68 -80 86 -82 19
-3 24 -4 35 -11 15 -10 73 1 115 23 45 23 77 72 85 132 16 111 -93 212 -202
187z"/>
<path d="M5933 8473 c-108 -37 -173 -162 -142 -278 58 -214 358 -225 429 -15
62 182 -107 353 -287 293z"/>
<path d="M7440 8422 c-171 -83 -170 -335 2 -412 30 -13 61 -18 104 -16 144 5
239 141 201 287 -12 50 -71 117 -121 140 -51 23 -139 24 -186 1z"/>
<path d="M8287 8414 c-2 -3 -13 -6 -24 -8 -195 -38 -269 -290 -128 -439 89
-94 264 -96 355 -4 151 151 70 412 -137 442 -21 4 -43 8 -50 10 -6 2 -13 2
-16 -1z"/>
<path d="M7845 8396 c-32 -18 -44 -32 -52 -62 -18 -71 19 -123 92 -129 66 -5
116 77 87 142 -23 48 -85 73 -127 49z"/>
<path d="M7065 8350 c-153 -33 -179 -240 -37 -302 160 -71 299 139 172 259
-35 33 -94 51 -135 43z"/>
<path d="M6305 8255 c-27 -25 -35 -40 -35 -66 0 -105 137 -142 185 -50 33 64
-7 132 -84 144 -26 4 -38 -1 -66 -28z"/>
<path d="M5588 8248 c-15 -5 -36 -24 -47 -41 -16 -27 -18 -40 -11 -72 18 -80
107 -104 163 -44 70 76 -6 191 -105 157z"/>
<path d="M4790 8193 c-37 -31 -46 -72 -25 -117 32 -67 128 -74 165 -13 23 36
25 69 9 100 -32 59 -99 72 -149 30z"/>
<path d="M5105 8122 c-72 -13 -144 -72 -174 -143 -26 -59 -24 -145 4 -198 20
-40 79 -101 97 -101 8 0 19 -5 24 -10 12 -12 48 -21 84 -20 28 0 74 6 78 10 1
1 6 3 11 4 5 0 30 16 56 34 66 47 99 121 92 208 -4 58 -28 116 -62 149 -18 19
-75 57 -75 50 0 -3 -9 -1 -19 5 -22 11 -86 18 -116 12z"/>
<path d="M7879 8071 c-34 -34 -38 -77 -12 -122 37 -63 134 -57 166 9 12 23 13
42 8 82 0 5 -12 21 -26 35 -38 37 -97 35 -136 -4z"/>
<path d="M5640 8014 c-150 -44 -226 -234 -152 -379 22 -44 95 -112 128 -120
11 -2 35 -8 54 -13 189 -47 360 154 295 347 -43 130 -190 205 -325 165z"/>
<path d="M4643 7969 c-74 -21 -90 -127 -26 -173 45 -33 109 -22 136 23 26 44
22 93 -9 125 -15 14 -30 26 -35 26 -4 0 -13 2 -21 4 -7 2 -28 0 -45 -5z"/>
<path d="M7275 7967 c-165 -50 -253 -225 -193 -386 22 -58 98 -144 138 -156
14 -4 28 -12 31 -18 13 -19 150 -16 206 4 137 52 213 208 173 354 -16 60 -33
89 -79 134 -66 65 -186 95 -276 68z"/>
<path d="M7855 7853 c-25 -6 -82 -48 -113 -82 -30 -34 -55 -122 -50 -175 5
-47 44 -136 59 -136 6 0 7 -4 4 -10 -3 -5 -1 -10 5 -10 6 0 20 -8 31 -19 43
-40 133 -55 219 -35 48 10 132 96 148 150 39 134 -28 277 -147 313 -38 11
-118 13 -156 4z"/>
<path d="M4770 7762 c-34 -5 -87 -46 -105 -82 -24 -46 -19 -110 12 -158 52
-80 169 -88 232 -17 97 111 6 278 -139 257z"/>
<path d="M8329 7620 c-7 -5 -16 -7 -20 -4 -4 2 -12 -3 -19 -11 -7 -8 -16 -15
-21 -15 -15 0 -56 -45 -78 -85 -24 -45 -28 -124 -9 -187 15 -51 93 -123 145
-134 93 -19 176 6 228 68 98 115 65 283 -68 354 -32 17 -137 26 -158 14z"/>
<path d="M5255 7560 c-86 -46 -132 -136 -122 -238 13 -121 122 -215 243 -206
141 9 237 127 220 266 -21 164 -197 256 -341 178z"/>
<path d="M5942 7545 c-95 -41 -56 -199 47 -188 74 7 113 88 74 154 -16 26 -26
33 -73 44 -8 2 -30 -2 -48 -10z"/>
<path d="M6957 7431 c-83 -56 -55 -179 43 -186 29 -2 80 21 80 36 0 6 4 7 10
4 5 -3 7 0 4 8 -3 8 -1 17 3 20 17 11 1 76 -24 102 -14 14 -31 25 -37 26 -6 0
-21 2 -34 3 -12 2 -32 -4 -45 -13z"/>
<path d="M6475 7380 c27 -12 77 -12 95 0 10 7 -5 10 -50 9 -45 0 -59 -3 -45
-9z"/>
<path d="M7387 7353 c-4 -3 -21 -7 -38 -8 -40 -4 -76 -22 -116 -60 -84 -82
-84 -233 1 -317 104 -102 281 -74 348 55 38 74 24 200 -28 254 -22 23 -107 72
-115 67 -5 -3 -17 0 -27 5 -11 6 -22 8 -25 4z"/>
<path d="M4798 7345 c-2 -2 -19 -5 -38 -8 -71 -9 -141 -62 -176 -134 -24 -50
-25 -155 -1 -204 41 -84 125 -138 213 -139 101 0 173 44 218 135 25 49 28 64
24 118 -8 94 -52 164 -128 203 -32 16 -105 35 -112 29z"/>
<path d="M7895 7305 c-86 -80 -35 -209 82 -209 112 0 155 162 58 220 -48 30
-102 26 -140 -11z"/>
<path d="M5890 7312 c-57 -17 -103 -49 -137 -95 -34 -46 -38 -57 -40 -125 -2
-56 2 -83 16 -111 92 -179 342 -176 422 5 55 123 -3 267 -127 315 -32 12 -110
19 -134 11z"/>
<path d="M6756 7313 c-3 -3 -18 -7 -33 -9 -117 -9 -204 -107 -205 -229 -1 -90
50 -176 127 -212 159 -75 335 39 335 218 0 67 -42 149 -92 180 -21 13 -38 26
-38 29 0 3 -11 7 -26 8 -14 1 -33 6 -43 12 -10 5 -21 6 -25 3z"/>
<path d="M6275 7148 c-32 -19 -46 -36 -56 -70 -21 -75 25 -146 100 -155 101
-12 165 96 111 185 -30 49 -106 68 -155 40z"/>
<path d="M5108 7091 c-28 -25 -33 -36 -33 -76 0 -40 5 -51 33 -76 68 -61 172
-15 172 76 0 92 -103 137 -172 76z"/>
<path d="M8145 7089 c-45 -13 -101 -63 -125 -113 -43 -90 -21 -196 56 -265 42
-38 61 -44 149 -54 24 -2 82 17 110 37 117 82 133 231 36 344 -44 51 -147 75
-226 51z"/>
<path d="M5451 6972 c-66 -22 -136 -96 -156 -165 -65 -224 154 -417 361 -316
154 74 188 292 66 422 -61 64 -180 90 -271 59z"/>
<path d="M6988 6866 c-148 -72 -177 -267 -56 -377 136 -124 362 -31 373 153 8
132 -82 235 -212 243 -45 3 -68 -1 -105 -19z"/>
<path d="M7387 6854 c-27 -15 -57 -61 -57 -89 0 -44 62 -109 95 -100 6 2 22 6
37 9 33 7 58 43 65 90 9 67 -77 123 -140 90z"/>
<path d="M5035 6853 c-58 -15 -111 -104 -99 -168 18 -98 132 -156 213 -107
128 78 92 267 -52 278 -23 1 -51 0 -62 -3z"/>
<path d="M7765 6793 c-91 -31 -155 -120 -155 -216 0 -59 38 -142 81 -176 87
-68 203 -67 286 4 48 41 72 87 78 151 17 162 -139 290 -290 237z"/>
<path d="M5997 6766 c-97 -26 -157 -99 -162 -198 -5 -92 32 -166 106 -207 212
-120 432 146 277 334 -26 30 -85 70 -110 74 -5 1 -9 1 -10 2 -23 7 -63 5 -101
-5z"/>
<path d="M6477 6762 c-58 -21 -108 -66 -139 -124 -32 -61 -32 -175 0 -236 49
-93 122 -137 227 -137 104 0 179 44 225 132 88 170 -20 368 -208 379 -37 3
-74 -2 -105 -14z"/>
<path d="M4627 6556 c-89 -60 -49 -196 58 -196 110 0 143 160 42 201 -46 19
-65 18 -100 -5z"/>
<path d="M4954 6515 c-118 -35 -182 -151 -152 -275 15 -59 89 -134 149 -150
91 -25 192 13 243 91 51 76 45 197 -12 265 -22 26 -91 70 -112 72 -8 1 -29 3
-45 5 -17 2 -49 -1 -71 -8z"/>
<path d="M7415 6423 c-167 -68 -183 -311 -27 -404 49 -29 144 -36 193 -15 89
38 142 117 142 211 -2 162 -159 268 -308 208z"/>
<path d="M5653 6355 c-38 -16 -63 -60 -63 -111 0 -51 53 -104 105 -104 71 0
115 45 115 116 0 82 -81 133 -157 99z"/>
<path d="M6961 6350 c-92 -22 -171 -126 -171 -224 1 -122 104 -229 218 -226
77 2 92 4 92 12 0 4 6 8 13 8 7 0 29 13 49 30 99 82 108 243 18 337 -49 53
-146 81 -219 63z"/>
<path d="M6276 6215 c-21 -7 -56 -30 -77 -51 -146 -142 -42 -396 161 -396 122
0 229 112 225 236 -6 160 -158 265 -309 211z"/>
<path d="M5785 6121 c-80 -37 -127 -115 -126 -208 1 -156 161 -259 304 -195
82 37 130 110 129 196 -1 61 -3 72 -24 111 -53 99 -182 143 -283 96z"/>
<path d="M4835 5983 c-197 -71 -274 -315 -155 -488 63 -91 153 -136 268 -132
148 6 260 92 296 230 40 152 -34 315 -172 379 -65 29 -171 34 -237 11z"/>
<path d="M6713 5982 c-30 -4 -73 -57 -73 -89 0 -46 29 -92 65 -102 74 -20 129
20 129 94 0 70 -47 108 -121 97z"/>
<path d="M5464 5955 c-43 -18 -66 -49 -71 -97 -7 -72 46 -132 115 -129 44 3
52 4 52 13 0 4 6 8 14 8 24 0 56 77 46 111 -5 16 -9 33 -9 37 -1 15 -53 62
-69 63 -10 0 -24 2 -33 4 -8 1 -29 -3 -45 -10z"/>
<path d="M5602 5694 c-76 -31 -73 -146 4 -179 42 -17 79 -8 109 27 69 82 -14
194 -113 152z"/>
<path d="M5990 5566 c-85 -26 -148 -89 -165 -166 -32 -142 59 -273 198 -287
135 -14 243 82 251 222 8 151 -142 273 -284 231z"/>
<path d="M5379 5506 c-96 -34 -149 -113 -149 -220 1 -195 238 -294 379 -158
47 45 65 90 65 162 -1 162 -147 269 -295 216z"/>
<path d="M4872 5301 c-157 -55 -217 -252 -117 -386 30 -40 98 -84 140 -91 21
-3 45 -7 54 -9 9 -1 42 5 75 15 66 21 116 63 149 125 28 54 29 164 2 219 -56
116 -183 169 -303 127z"/>
<path d="M5793 5090 c-40 -24 -55 -52 -57 -106 -1 -50 25 -91 69 -113 33 -16
98 -17 103 -1 2 5 9 10 16 10 24 0 58 61 58 101 -1 48 -35 107 -69 120 -39 14
-85 10 -120 -11z"/>
<path d="M5418 4988 c-169 -22 -270 -203 -200 -360 87 -197 367 -202 460 -7
89 184 -60 393 -260 367z"/>
<path d="M6125 4902 c-56 -11 -90 -78 -69 -137 37 -109 194 -80 194 36 0 63
-63 114 -125 101z"/>
<path d="M4714 4786 c-38 -38 -42 -65 -16 -115 37 -71 130 -71 165 1 33 68 -4
136 -79 144 -31 3 -42 -2 -70 -30z"/>
<path d="M5817 4797 c-47 -27 -81 -92 -73 -141 14 -85 61 -129 143 -133 45 -1
56 2 91 33 43 36 58 74 54 134 -8 100 -126 158 -215 107z"/>
<path d="M6115 4621 c-74 -22 -102 -103 -59 -168 13 -20 23 -23 83 -23 78 0
98 14 107 72 13 76 -58 140 -131 119z"/>
</g>
</svg>
